<mxfile host="app.diagrams.net" modified="2023-09-26T16:34:40.929Z" agent="Mozilla/5.0 (Macintosh; Intel Mac OS X 10_15_7) AppleWebKit/537.36 (KHTML, like Gecko) Chrome/116.0.0.0 Safari/537.36" etag="sHtBJQPnpSETbp2S42HA" version="21.7.5" type="device">
  <diagram name="Page-1" id="Kr9L1xDWZkeS6lO7f3Op">
    <mxGraphModel dx="1570" dy="775" grid="1" gridSize="10" guides="1" tooltips="1" connect="1" arrows="1" fold="1" page="1" pageScale="1" pageWidth="827" pageHeight="1169" math="0" shadow="0">
      <root>
        <mxCell id="0" />
        <mxCell id="1" parent="0" />
        <mxCell id="LjISZe58Rca5JZu1_JYO-62" value="" style="rounded=0;whiteSpace=wrap;html=1;" vertex="1" parent="1">
          <mxGeometry x="40" y="60" width="770" height="430" as="geometry" />
        </mxCell>
        <mxCell id="LjISZe58Rca5JZu1_JYO-2" value=": SS App" style="rounded=0;whiteSpace=wrap;html=1;" vertex="1" parent="1">
          <mxGeometry x="273" y="80" width="80" height="40" as="geometry" />
        </mxCell>
        <mxCell id="LjISZe58Rca5JZu1_JYO-9" style="edgeStyle=orthogonalEdgeStyle;rounded=0;orthogonalLoop=1;jettySize=auto;html=1;exitX=0.75;exitY=0;exitDx=0;exitDy=0;entryX=0;entryY=0;entryDx=0;entryDy=0;endArrow=block;endFill=1;" edge="1" parent="1" source="LjISZe58Rca5JZu1_JYO-4" target="LjISZe58Rca5JZu1_JYO-5">
          <mxGeometry relative="1" as="geometry">
            <Array as="points">
              <mxPoint x="308" y="150" />
            </Array>
          </mxGeometry>
        </mxCell>
        <mxCell id="LjISZe58Rca5JZu1_JYO-4" value="" style="whiteSpace=wrap;html=1;fillColor=#dae8fc;strokeColor=#6c8ebf;" vertex="1" parent="1">
          <mxGeometry x="78" y="140" width="10" height="300" as="geometry" />
        </mxCell>
        <mxCell id="LjISZe58Rca5JZu1_JYO-22" style="edgeStyle=orthogonalEdgeStyle;rounded=0;orthogonalLoop=1;jettySize=auto;html=1;exitX=0;exitY=1;exitDx=0;exitDy=0;entryX=0.892;entryY=0.965;entryDx=0;entryDy=0;entryPerimeter=0;dashed=1;endArrow=open;endFill=0;" edge="1" parent="1" source="LjISZe58Rca5JZu1_JYO-5" target="LjISZe58Rca5JZu1_JYO-4">
          <mxGeometry relative="1" as="geometry">
            <mxPoint x="93" y="263" as="targetPoint" />
            <Array as="points">
              <mxPoint x="87" y="430" />
            </Array>
          </mxGeometry>
        </mxCell>
        <mxCell id="LjISZe58Rca5JZu1_JYO-54" value="User Registered" style="edgeLabel;html=1;align=center;verticalAlign=middle;resizable=0;points=[];" vertex="1" connectable="0" parent="LjISZe58Rca5JZu1_JYO-22">
          <mxGeometry x="0.0725" y="3" relative="1" as="geometry">
            <mxPoint x="1" y="-13" as="offset" />
          </mxGeometry>
        </mxCell>
        <mxCell id="LjISZe58Rca5JZu1_JYO-31" style="edgeStyle=orthogonalEdgeStyle;rounded=0;orthogonalLoop=1;jettySize=auto;html=1;exitX=1;exitY=0.25;exitDx=0;exitDy=0;entryX=0;entryY=0;entryDx=0;entryDy=0;endArrow=block;endFill=1;" edge="1" parent="1" source="LjISZe58Rca5JZu1_JYO-5" target="LjISZe58Rca5JZu1_JYO-30">
          <mxGeometry relative="1" as="geometry">
            <Array as="points">
              <mxPoint x="318" y="160" />
            </Array>
          </mxGeometry>
        </mxCell>
        <mxCell id="LjISZe58Rca5JZu1_JYO-38" value="Send a Registration Request" style="edgeLabel;html=1;align=center;verticalAlign=middle;resizable=0;points=[];" vertex="1" connectable="0" parent="LjISZe58Rca5JZu1_JYO-31">
          <mxGeometry x="0.159" relative="1" as="geometry">
            <mxPoint y="-10" as="offset" />
          </mxGeometry>
        </mxCell>
        <mxCell id="LjISZe58Rca5JZu1_JYO-5" value="" style="whiteSpace=wrap;html=1;fillColor=#dae8fc;strokeColor=#6c8ebf;" vertex="1" parent="1">
          <mxGeometry x="308" y="150" width="10" height="280" as="geometry" />
        </mxCell>
        <mxCell id="LjISZe58Rca5JZu1_JYO-14" value="" style="endArrow=none;html=1;rounded=0;entryX=0.5;entryY=1;entryDx=0;entryDy=0;dashed=1;exitX=0.5;exitY=0;exitDx=0;exitDy=0;" edge="1" parent="1" source="LjISZe58Rca5JZu1_JYO-5" target="LjISZe58Rca5JZu1_JYO-2">
          <mxGeometry width="50" height="50" relative="1" as="geometry">
            <mxPoint x="313" y="190" as="sourcePoint" />
            <mxPoint x="433" y="210" as="targetPoint" />
          </mxGeometry>
        </mxCell>
        <mxCell id="LjISZe58Rca5JZu1_JYO-25" value="Customer" style="shape=umlActor;verticalLabelPosition=bottom;verticalAlign=top;html=1;outlineConnect=0;fillColor=#dae8fc;strokeColor=#6c8ebf;" vertex="1" parent="1">
          <mxGeometry x="75.5" y="80" width="15" height="30" as="geometry" />
        </mxCell>
        <mxCell id="LjISZe58Rca5JZu1_JYO-28" value="Registration Request" style="text;html=1;strokeColor=none;fillColor=none;align=center;verticalAlign=middle;whiteSpace=wrap;rounded=0;" vertex="1" parent="1">
          <mxGeometry x="143" y="126" width="120" height="30" as="geometry" />
        </mxCell>
        <mxCell id="LjISZe58Rca5JZu1_JYO-29" value=": Server" style="rounded=0;whiteSpace=wrap;html=1;" vertex="1" parent="1">
          <mxGeometry x="508" y="80" width="70" height="40" as="geometry" />
        </mxCell>
        <mxCell id="LjISZe58Rca5JZu1_JYO-32" style="edgeStyle=orthogonalEdgeStyle;rounded=0;orthogonalLoop=1;jettySize=auto;html=1;exitX=0;exitY=0.25;exitDx=0;exitDy=0;entryX=0.97;entryY=0.171;entryDx=0;entryDy=0;entryPerimeter=0;endArrow=open;endFill=0;" edge="1" parent="1" source="LjISZe58Rca5JZu1_JYO-30" target="LjISZe58Rca5JZu1_JYO-5">
          <mxGeometry relative="1" as="geometry">
            <mxPoint x="323" y="198" as="targetPoint" />
            <Array as="points">
              <mxPoint x="538" y="198" />
              <mxPoint x="318" y="198" />
            </Array>
          </mxGeometry>
        </mxCell>
        <mxCell id="LjISZe58Rca5JZu1_JYO-40" value="Checks if Email is Unique" style="edgeLabel;html=1;align=center;verticalAlign=middle;resizable=0;points=[];" vertex="1" connectable="0" parent="LjISZe58Rca5JZu1_JYO-32">
          <mxGeometry x="0.1711" y="-2" relative="1" as="geometry">
            <mxPoint y="-6" as="offset" />
          </mxGeometry>
        </mxCell>
        <mxCell id="LjISZe58Rca5JZu1_JYO-30" value="" style="whiteSpace=wrap;html=1;fillColor=#dae8fc;strokeColor=#6c8ebf;" vertex="1" parent="1">
          <mxGeometry x="538" y="160" width="10" height="260" as="geometry" />
        </mxCell>
        <mxCell id="LjISZe58Rca5JZu1_JYO-33" value=": Database" style="rounded=0;whiteSpace=wrap;html=1;" vertex="1" parent="1">
          <mxGeometry x="724" y="80" width="70" height="40" as="geometry" />
        </mxCell>
        <mxCell id="LjISZe58Rca5JZu1_JYO-34" value="" style="whiteSpace=wrap;html=1;fillColor=#dae8fc;strokeColor=#6c8ebf;" vertex="1" parent="1">
          <mxGeometry x="754" y="240" width="10" height="40" as="geometry" />
        </mxCell>
        <mxCell id="LjISZe58Rca5JZu1_JYO-35" style="edgeStyle=orthogonalEdgeStyle;rounded=0;orthogonalLoop=1;jettySize=auto;html=1;endArrow=block;endFill=1;exitX=0.975;exitY=0.306;exitDx=0;exitDy=0;entryX=0;entryY=0;entryDx=0;entryDy=0;exitPerimeter=0;" edge="1" parent="1" source="LjISZe58Rca5JZu1_JYO-30" target="LjISZe58Rca5JZu1_JYO-34">
          <mxGeometry relative="1" as="geometry">
            <mxPoint x="549" y="180" as="sourcePoint" />
            <mxPoint x="702" y="236" as="targetPoint" />
            <Array as="points">
              <mxPoint x="626" y="240" />
              <mxPoint x="703" y="240" />
            </Array>
          </mxGeometry>
        </mxCell>
        <mxCell id="LjISZe58Rca5JZu1_JYO-39" value="Query if Email exists" style="edgeLabel;html=1;align=center;verticalAlign=middle;resizable=0;points=[];" vertex="1" connectable="0" parent="LjISZe58Rca5JZu1_JYO-35">
          <mxGeometry x="-0.0117" relative="1" as="geometry">
            <mxPoint x="6" y="-8" as="offset" />
          </mxGeometry>
        </mxCell>
        <mxCell id="LjISZe58Rca5JZu1_JYO-42" style="edgeStyle=orthogonalEdgeStyle;rounded=0;orthogonalLoop=1;jettySize=auto;html=1;exitX=0;exitY=0.75;exitDx=0;exitDy=0;dashed=1;endArrow=open;endFill=0;entryX=0.975;entryY=0.429;entryDx=0;entryDy=0;entryPerimeter=0;" edge="1" parent="1" source="LjISZe58Rca5JZu1_JYO-34" target="LjISZe58Rca5JZu1_JYO-30">
          <mxGeometry relative="1" as="geometry">
            <mxPoint x="702.9999999999999" y="272.79999999999995" as="sourcePoint" />
            <mxPoint x="552.42" y="272" as="targetPoint" />
            <Array as="points" />
          </mxGeometry>
        </mxCell>
        <mxCell id="LjISZe58Rca5JZu1_JYO-43" value="No Matching Email found" style="edgeLabel;html=1;align=center;verticalAlign=middle;resizable=0;points=[];" vertex="1" connectable="0" parent="LjISZe58Rca5JZu1_JYO-42">
          <mxGeometry x="-0.0632" relative="1" as="geometry">
            <mxPoint x="1" y="-10" as="offset" />
          </mxGeometry>
        </mxCell>
        <mxCell id="LjISZe58Rca5JZu1_JYO-44" style="edgeStyle=orthogonalEdgeStyle;rounded=0;orthogonalLoop=1;jettySize=auto;html=1;exitX=-0.196;exitY=0.525;exitDx=0;exitDy=0;exitPerimeter=0;dashed=1;endArrow=open;endFill=0;entryX=1.023;entryY=0.526;entryDx=0;entryDy=0;entryPerimeter=0;" edge="1" parent="1" source="LjISZe58Rca5JZu1_JYO-30" target="LjISZe58Rca5JZu1_JYO-5">
          <mxGeometry relative="1" as="geometry">
            <mxPoint x="711" y="282" as="sourcePoint" />
            <mxPoint x="563" y="282" as="targetPoint" />
            <Array as="points" />
          </mxGeometry>
        </mxCell>
        <mxCell id="LjISZe58Rca5JZu1_JYO-45" value="Email is unique" style="edgeLabel;html=1;align=center;verticalAlign=middle;resizable=0;points=[];" vertex="1" connectable="0" parent="LjISZe58Rca5JZu1_JYO-44">
          <mxGeometry x="-0.0632" relative="1" as="geometry">
            <mxPoint x="1" y="-10" as="offset" />
          </mxGeometry>
        </mxCell>
        <mxCell id="LjISZe58Rca5JZu1_JYO-46" style="edgeStyle=orthogonalEdgeStyle;rounded=0;orthogonalLoop=1;jettySize=auto;html=1;endArrow=block;endFill=1;entryX=-0.035;entryY=0.689;entryDx=0;entryDy=0;entryPerimeter=0;" edge="1" parent="1" target="LjISZe58Rca5JZu1_JYO-30">
          <mxGeometry relative="1" as="geometry">
            <mxPoint x="323" y="340" as="sourcePoint" />
            <mxPoint x="712" y="246" as="targetPoint" />
            <Array as="points">
              <mxPoint x="318" y="340" />
              <mxPoint x="538" y="340" />
            </Array>
          </mxGeometry>
        </mxCell>
        <mxCell id="LjISZe58Rca5JZu1_JYO-47" value="Sends Registration data" style="edgeLabel;html=1;align=center;verticalAlign=middle;resizable=0;points=[];" vertex="1" connectable="0" parent="LjISZe58Rca5JZu1_JYO-46">
          <mxGeometry x="-0.0117" relative="1" as="geometry">
            <mxPoint x="2" y="-9" as="offset" />
          </mxGeometry>
        </mxCell>
        <mxCell id="LjISZe58Rca5JZu1_JYO-48" style="edgeStyle=orthogonalEdgeStyle;rounded=0;orthogonalLoop=1;jettySize=auto;html=1;endArrow=block;endFill=1;entryX=0;entryY=0;entryDx=0;entryDy=0;" edge="1" parent="1" target="LjISZe58Rca5JZu1_JYO-61">
          <mxGeometry relative="1" as="geometry">
            <mxPoint x="548" y="351" as="sourcePoint" />
            <mxPoint x="703.0000000000001" y="350.35" as="targetPoint" />
            <Array as="points">
              <mxPoint x="626" y="351" />
            </Array>
          </mxGeometry>
        </mxCell>
        <mxCell id="LjISZe58Rca5JZu1_JYO-49" value="Create a New User Record" style="edgeLabel;html=1;align=center;verticalAlign=middle;resizable=0;points=[];" vertex="1" connectable="0" parent="LjISZe58Rca5JZu1_JYO-48">
          <mxGeometry x="-0.0117" relative="1" as="geometry">
            <mxPoint x="2" y="-8" as="offset" />
          </mxGeometry>
        </mxCell>
        <mxCell id="LjISZe58Rca5JZu1_JYO-50" style="edgeStyle=orthogonalEdgeStyle;rounded=0;orthogonalLoop=1;jettySize=auto;html=1;exitX=0.058;exitY=0.573;exitDx=0;exitDy=0;exitPerimeter=0;entryX=1.022;entryY=0.842;entryDx=0;entryDy=0;entryPerimeter=0;dashed=1;endArrow=open;endFill=0;" edge="1" parent="1" source="LjISZe58Rca5JZu1_JYO-61" target="LjISZe58Rca5JZu1_JYO-30">
          <mxGeometry relative="1" as="geometry">
            <mxPoint x="318" y="263" as="sourcePoint" />
            <mxPoint x="98" y="263" as="targetPoint" />
            <Array as="points" />
          </mxGeometry>
        </mxCell>
        <mxCell id="LjISZe58Rca5JZu1_JYO-51" value="User Record Created" style="edgeLabel;html=1;align=center;verticalAlign=middle;resizable=0;points=[];" vertex="1" connectable="0" parent="LjISZe58Rca5JZu1_JYO-50">
          <mxGeometry x="0.0233" y="3" relative="1" as="geometry">
            <mxPoint x="1" y="-11" as="offset" />
          </mxGeometry>
        </mxCell>
        <mxCell id="LjISZe58Rca5JZu1_JYO-52" style="edgeStyle=orthogonalEdgeStyle;rounded=0;orthogonalLoop=1;jettySize=auto;html=1;entryX=0.978;entryY=0.94;entryDx=0;entryDy=0;entryPerimeter=0;dashed=1;endArrow=open;endFill=0;" edge="1" parent="1" target="LjISZe58Rca5JZu1_JYO-5">
          <mxGeometry relative="1" as="geometry">
            <mxPoint x="533" y="413" as="sourcePoint" />
            <mxPoint x="558" y="406" as="targetPoint" />
            <Array as="points" />
          </mxGeometry>
        </mxCell>
        <mxCell id="LjISZe58Rca5JZu1_JYO-53" value="Registraction Successfull" style="edgeLabel;html=1;align=center;verticalAlign=middle;resizable=0;points=[];" vertex="1" connectable="0" parent="LjISZe58Rca5JZu1_JYO-52">
          <mxGeometry x="0.0233" y="3" relative="1" as="geometry">
            <mxPoint y="-10" as="offset" />
          </mxGeometry>
        </mxCell>
        <mxCell id="LjISZe58Rca5JZu1_JYO-55" value="" style="endArrow=none;html=1;rounded=0;entryX=0.5;entryY=1;entryDx=0;entryDy=0;dashed=1;exitX=0.5;exitY=0;exitDx=0;exitDy=0;" edge="1" parent="1" source="LjISZe58Rca5JZu1_JYO-30" target="LjISZe58Rca5JZu1_JYO-29">
          <mxGeometry width="50" height="50" relative="1" as="geometry">
            <mxPoint x="542.79" y="156" as="sourcePoint" />
            <mxPoint x="542.79" y="126" as="targetPoint" />
          </mxGeometry>
        </mxCell>
        <mxCell id="LjISZe58Rca5JZu1_JYO-56" value="" style="endArrow=none;html=1;rounded=0;entryX=0.5;entryY=1;entryDx=0;entryDy=0;dashed=1;exitX=0.5;exitY=0;exitDx=0;exitDy=0;" edge="1" parent="1" source="LjISZe58Rca5JZu1_JYO-34" target="LjISZe58Rca5JZu1_JYO-33">
          <mxGeometry width="50" height="50" relative="1" as="geometry">
            <mxPoint x="604" y="170" as="sourcePoint" />
            <mxPoint x="604" y="130" as="targetPoint" />
          </mxGeometry>
        </mxCell>
        <mxCell id="LjISZe58Rca5JZu1_JYO-57" value="" style="endArrow=none;html=1;rounded=0;dashed=1;exitX=0.5;exitY=0;exitDx=0;exitDy=0;" edge="1" parent="1" target="LjISZe58Rca5JZu1_JYO-4">
          <mxGeometry width="50" height="50" relative="1" as="geometry">
            <mxPoint x="82.79000000000002" y="480" as="sourcePoint" />
            <mxPoint x="82.79000000000002" y="440" as="targetPoint" />
          </mxGeometry>
        </mxCell>
        <mxCell id="LjISZe58Rca5JZu1_JYO-58" value="" style="endArrow=none;html=1;rounded=0;dashed=1;exitX=0.5;exitY=0;exitDx=0;exitDy=0;entryX=0.5;entryY=1;entryDx=0;entryDy=0;" edge="1" parent="1" target="LjISZe58Rca5JZu1_JYO-5">
          <mxGeometry width="50" height="50" relative="1" as="geometry">
            <mxPoint x="312.79" y="480" as="sourcePoint" />
            <mxPoint x="313" y="440" as="targetPoint" />
          </mxGeometry>
        </mxCell>
        <mxCell id="LjISZe58Rca5JZu1_JYO-59" value="" style="endArrow=none;html=1;rounded=0;dashed=1;exitX=0.5;exitY=0;exitDx=0;exitDy=0;entryX=0.5;entryY=1;entryDx=0;entryDy=0;" edge="1" parent="1" target="LjISZe58Rca5JZu1_JYO-30">
          <mxGeometry width="50" height="50" relative="1" as="geometry">
            <mxPoint x="542.79" y="480" as="sourcePoint" />
            <mxPoint x="543" y="440" as="targetPoint" />
          </mxGeometry>
        </mxCell>
        <mxCell id="LjISZe58Rca5JZu1_JYO-60" value="" style="endArrow=none;html=1;rounded=0;dashed=1;exitX=0.5;exitY=0;exitDx=0;exitDy=0;entryX=0.5;entryY=1;entryDx=0;entryDy=0;" edge="1" parent="1" target="LjISZe58Rca5JZu1_JYO-34">
          <mxGeometry width="50" height="50" relative="1" as="geometry">
            <mxPoint x="758.79" y="480" as="sourcePoint" />
            <mxPoint x="759" y="440" as="targetPoint" />
          </mxGeometry>
        </mxCell>
        <mxCell id="LjISZe58Rca5JZu1_JYO-61" value="" style="whiteSpace=wrap;html=1;fillColor=#dae8fc;strokeColor=#6c8ebf;" vertex="1" parent="1">
          <mxGeometry x="754" y="350" width="10" height="50" as="geometry" />
        </mxCell>
      </root>
    </mxGraphModel>
  </diagram>
</mxfile>
